<?xml version="1.0" encoding="utf-8"?>
<!-- Generator: Adobe Illustrator 27.5.0, SVG Export Plug-In . SVG Version: 6.00 Build 0)  -->
<svg version="1.1" id="Layer_1" xmlns="http://www.w3.org/2000/svg" xmlns:xlink="http://www.w3.org/1999/xlink" x="0px" y="0px"
	 viewBox="0 0 4508 1251" style="enable-background:new 0 0 4508 1251;" xml:space="preserve">
<style type="text/css">
	.st0{fill:#EF4242;stroke:#FF3333;stroke-miterlimit:10;}
</style>
<g transform="translate(0.000000,1251.000000) scale(0.100000,-0.100000)">
	<path d="M27740,12500c-370-29-684-94-989-204c-416-151-725-310-1037-532c-161-114-243-183-401-338l-143-139v421v422h-840h-840V7390
		V2650h840h840l2,2973l3,2972l28,140c47,237,98,444,134,550c69,201,205,446,365,658c142,188,401,413,644,560
		c452,272,897,385,1594,404c408,11,750-29,1002-116l57-20l6,32c3,18,55,372,115,787c61,415,112,765,115,777c4,19-1,24-35,33
		c-79,21-388,69-550,85C28457,12504,27912,12513,27740,12500z"/>
	<path d="M4765,12480c-621-47-1165-184-1705-427c-939-424-1722-1092-2249-1920C440,9549,187,8900,80,8255c-44-266-60-440-67-730
		c-22-955,199-1824,673-2651c390-680,936-1270,1575-1701c912-614,1899-905,2984-880c776,18,1453,181,2105,506
		c724,361,1354,885,1834,1526c90,120,210,295,204,299c-2,2-264,172-583,378s-633,409-697,451l-117,76l-79-112
		c-499-706-1210-1208-1972-1392c-271-65-487-89-810-89c-408-1-690,42-1055,161c-497,162-948,437-1316,803c-282,281-484,558-663,910
		c-193,378-305,738-362,1165c-23,165-26,665-6,825c67,529,219,977,480,1410c153,255,291,430,501,640c482,480,1134,822,1801,944
		c229,41,348,51,630,50c292,0,441-14,690-64c432-86,796-239,1180-495c187-125,327-241,506-420c173-172,289-311,415-497l80-118l72,48
		c40,27,349,230,687,452s616,404,618,406c6,4-114,179-204,299c-353,471-769,864-1259,1190c-232,154-359,228-575,336
		c-529,263-1071,418-1695,484C5476,12484,4939,12493,4765,12480z"/>
	<path class="st0" d="M15578,12476c-82-22-146-85-168-166l-9-35l-478-119c-263-66-485-121-494-123c-10-3-25,11-42,36
		c-16,23-49,53-79,70c-110,63-226,47-314-43c-61-63-79-117-71-214l5-67l-496-298l-495-299l-41,19c-58,26-158,24-212-5
		c-93-48-142-143-130-249c4-32,8-69,9-83c1-18-138-232-507-775c-280-412-517-762-528-777c-18-26-19-27-60-12c-84,30-184,10-256-51
		c-134-115-106-345,52-423c25-13,46-28,46-34c0-19-181-1403-185-1415c-2-6-18-14-36-18c-19-4-52-27-79-54c-59-59-76-120-59-203
		c9-41,21-61,60-100l49-49l200-792l200-792l-22-15c-90-61-129-124-136-219c-9-134,61-247,177-286c64-21,160-17,210,8
		c28,14,37,15,47,5c36-39,974-1238,974-1246c0-5-8-24-17-43c-25-48-25-201,0-246c29-55,78-103,131-131c43-22,64-27,131-27
		c81,0,99,6,191,64c18,12,80-20,655-336l634-349l6-75c7-86,31-141,86-195c90-88,232-114,343-62c67,31,133,96,157,155
		c16,37,22,43,48,43c17,0,235-11,485-25s469-25,485-25c26,0,33-5,44-35c36-102,150-161,257-134c45,12,120,72,149,121
		c9,14,54,19,357,33l348,17l27-33c67-80,199-80,266,0c15,18,30,45,33,59c14,66,5,61,460,251c242,101,446,186,455,188
		c8,2,38-11,67-31c87-58,190-60,275-6c78,49,126,148,112,236l-6,42l358,283c197,155,363,286,370,291c7,6,23,3,42-6
		c46-24,139-21,192,7c66,35,102,93,107,171c2,35-1,80-7,99l-12,36l367,580c342,541,369,581,395,581c40,0,80,17,112,48
		c74,70,83,167,22,255l-24,36l139,733c77,402,141,737,144,744s19,15,37,19c19,4,52,27,79,54c38,38,50,59,59,99
		c22,104-28,208-120,248c-24,11-41,26-44,39c-3,19-46,731-45,766c0,9,24,32,54,52c100,66,153,175,144,295c-12,159-127,280-285,300
		l-55,7l-271,514l-270,513l33,26c70,55,101,191,64,280c-19,47-68,98-119,125s-164,30-211,5l-30-17l-589,589l-588,588l-1,89
		c-1,77-4,94-28,134c-58,99-142,144-255,137c-75-4-127-25-174-69c-17-16-36-29-43-29c-6,0-317,117-691,259l-680,259l-16,42
		c-35,94-112,150-205,150c-68,0-147-40-181-91c-21-32-32-39-57-39c-17,0-194,14-394,30l-362,30l-33,36
		C15761,12471,15663,12499,15578,12476z M16290,12194c184-15,337-31,338-36c2-5,20-32,39-61l36-52l-23-65c-12-36-90-255-173-488
		c-144-406-151-423-174-420c-21,3-62,73-289,491l-265,487l36,37c22,23,41,56,51,90l15,53l37-5C15938,12222,16106,12208,16290,12194z
		 M15504,12052c20-13,59-30,88-36l52-12l268-494c244-448,268-497,257-517c-7-13-15-23-19-23c-3,0-390,200-860,444
		c-505,263-856,451-858,460s-2,16,0,16c2,1,226,56,498,124l495,122l22-29C15459,12090,15485,12066,15504,12052z M17713,11853
		c502-191,677-262,675-273c-2-9-298-118-888-327c-487-172-892-312-901-313c-9,0-22,12-29,26c-8,14-27,35-42,46c-15,10-28,24-28,30
		c0,8,307,878,335,951c4,10,18,17,34,17c40,1,104,34,132,68c13,17,26,31,29,32C17033,12110,17340,11994,17713,11853z M15417,11191
		l681-355l4-43l3-44l-540-274c-297-150-574-290-617-311l-76-37l-32,27c-49,41-109,68-165,75l-50,6l-163,724l-162,724l32,27l33,28
		l185-97C14652,11588,15042,11386,15417,11191z M14127,11664c18-3,35-14,37-23c3-9,75-329,161-711s158-702,160-711c3-10-12-27-42-48
		l-48-34l-35,21c-19,11-323,200-675,421l-640,401l-7,63c-5,44-4,65,5,73c7,7,229,142,495,302l482,290l37-19
		C14077,11679,14109,11667,14127,11664z M18479,11369l63-62l-42-1021c-22-561-42-1021-43-1022c-1,0-20-8-43-17l-40-15l-880,740
		l-879,740l2,40c1,22,3,42,5,43s406,145,898,318c492,174,895,316,895,317C18416,11430,18444,11402,18479,11369z M19437,10768
		l581-583l-12-60l-12-59l-319-133c-175-73-321-133-324-132c-3,0-20,19-36,42c-41,57-115,104-184,118l-57,12l-153,651
		c-85,358-156,656-158,662c-3,9,69,62,87,64C18853,11350,19117,11088,19437,10768z M18805,10504c69-291,125-537,125-546
		c0-10-13-24-29-32c-46-24-118-112-136-167c-23-70-17-178,13-241c14-27,20-53,16-60s-41-59-82-115c-70-99-96-120-108-89
		c-9,23,63,1792,73,1783C18679,11035,18737,10795,18805,10504z M13617,10457c345-217,639-400,653-408c20-10,22-14,8-17
		c-16-3-921,41-1085,54l-82,6l-16,47c-21,65-74,124-140,157c-30,14-55,27-56,28c-6,10-23,452-17,454c5,2,30,19,56,37s48,33,49,34
		S13272,10673,13617,10457z M12729,10774c3-3,8-73,12-157s10-185,13-225l4-72l-35-15c-129-54-201-205-160-337l15-47l-460-326
		c-254-179-462-324-464-322c-3,2,55,91,128,198s304,448,513,757c357,528,382,562,405,556C12714,10781,12727,10776,12729,10774z
		 M17408,9861l869-732l-14-42c-8-23-17-45-21-49c-4-3-736-149-1626-324c-1518-298-1620-317-1630-300c-6,10-23,34-38,53
		c-16,20-28,39-28,42s303,467,674,1031c429,652,679,1024,687,1021c8-2,43-3,79-4c48,0,76,6,105,21c22,12,47,20,56,18
		S16929,10263,17408,9861z M16110,10586c0-3-35-58-78-123s-334-507-647-983c-312-476-571-869-575-873s-39,3-78,15l-72,23l1,120
		c1,205,24,839,32,851c3,6,19,14,34,17c47,10,123,68,158,121c39,58,58,129,53,200l-3,48l580,293
		C16091,10585,16110,10594,16110,10586z M13670,9920c311-16,584-30,607-30h42l15-54c22-75,80-145,153-184l60-32l-4-117
		c-3-65-10-282-16-482l-12-364l-61-13c-34-7-75-19-92-28s-36-16-41-16c-15,0-1231,1320-1231,1336c0,8,3,14,8,14
		C13102,9950,13359,9936,13670,9920z M20091,9896c21-19,57-40,81-46c24-7,49-15,56-18c8-4,134-236,282-516l269-509l-41-31
		c-23-17-46-35-53-40c-8-6-225,136-658,430c-614,417-647,440-644,467c2,27,14,33,322,162c176,74,326,134,334,135
		C20046,9930,20070,9915,20091,9896z M12725,9789c59-26,169-23,229,6c25,12,43,15,51,9c7-5,259-277,560-604c302-327,568-616,592-641
		l45-46l-34-45c-18-24-40-54-48-67l-16-23l-1224,332c-674,182-1229,335-1233,340c-5,4-6,16-3,26c6,17,1009,734,1027,734
		C12674,9810,12699,9801,12725,9789z M19959,9044c344-234,633-429,641-434s12-11,10-14c-4-3-1800,435-1836,448c-6,2-14,17-17,33
		c-3,15-8,35-12,44c-3,9,24,57,76,130c45,63,83,116,85,118s29-4,60-14c110-35,245-1,324,80c18,19,36,35,38,35S19614,9278,19959,9044
		z M12697,8615c524-142,951-260,948-263c-3-4-1199-31-1411-32h-82l-26,55c-55,112-184,171-311,141l-30-6l-100,197
		c-55,109-101,201-103,205c-2,3,34-4,80-16C11708,8883,12174,8757,12697,8615z M18286,8854c-2-6-264-359-582-785s-636-852-706-947
		l-129-173l-27,19c-74,53-186,65-275,32l-55-21l-738,487c-407,267-743,489-747,494c-5,4-1,31,7,61c10,32,16,90,16,148v96l1608,316
		c1441,283,1608,314,1620,300C18285,8873,18289,8861,18286,8854z M19705,8670c495-122,902-223,906-226c4-2,9-16,12-32
		c3-15,22-52,41-80l35-52l-236-288c-129-158-238-287-242-286c-3,0-33,13-66,29c-52,26-72,30-145,30c-47,0-101-4-120-8l-36-8
		l-539,567c-297,312-542,571-544,577c-2,5,5,7,15,3C18797,8893,19210,8791,19705,8670z M11564,8636l106-204l-28-48
		c-23-42-27-60-27-129c0-80,9-113,51-176l17-26l-199-286c-109-158-200-283-202-278c-1,4,36,304,83,665s85,663,85,671s2,15,4,15
		C11457,8840,11506,8748,11564,8636z M19203,8228l534-561l-32-43c-54-71-70-125-70-240l1-101l-290-159c-159-87-328-180-376-207
		l-87-47l-27,40c-24,36-89,93-119,103c-8,2-29,270-68,878c-51,798-55,875-40,886c9,7,21,13,28,13S18910,8537,19203,8228z
		 M18470,8743c6-7,111-1609,110-1679c0-27-5-33-55-53c-63-26-137-101-156-158l-12-36l-431,7c-237,3-549,7-694,8c-195,1-262,4-260,13
		c2,6,324,442,717,967l713,956l31-9C18450,8754,18467,8747,18470,8743z M14060,8168v-53l-1356-404c-745-222-1357-402-1359-400
		s101,154,228,337l232,333l80,3c59,1,91,8,121,23c48,26,110,92,130,139l14,34l88,1c101,1,1741,35,1790,38l32,1V8168z M20917,8186
		c1-1,13-179,26-395l24-393l-53-52c-35-33-56-63-60-84c-4-18-10-34-13-37c-4-2-111,24-237,59l-229,62l-6,80c-4,50-14,95-27,123
		c-21,42-21,45-4,67c9,12,121,149,247,304l230,281l50-7C20893,8191,20916,8187,20917,8186z M14118,7931c12-27,41-69,63-95
		c26-29,38-50,33-58c-16-26-1557-2163-1568-2176c-10-10-18-10-42,3c-16,8-51,15-79,15l-50,1l-564,721l-563,721l18,55l19,56l280,83
		c154,45,762,227,1350,402c589,176,1072,320,1075,320S14105,7957,14118,7931z M15537,7453c323-212,652-428,730-479l142-93l-21-48
		c-21-45-27-139-16-219c2-16-223-232-1020-978c-563-527-1025-956-1027-954s66,665,151,1473c84,809,154,1479,154,1491
		c0,17,11,24,63,38c78,21,150,62,202,114c22,23,43,41,47,41C14946,7840,15214,7666,15537,7453z M14433,7681c39-11,57-21,57-32
		c0-23-299-2889-305-2926c-5-27-12-34-42-42c-20-6-53-24-74-41c-21-16-40-30-43-30c-5,0-794,483-1214,742l-113,70l19,31
		c10,18,328,462,707,987c994,1380,915,1272,934,1264C14368,7700,14401,7690,14433,7681z M20613,7136c148-40,273-78,279-84
		c7-7-164-159-548-488c-308-262-585-500-617-527c-47-41-62-49-75-40c-10,5-18,16-20,24c-1,8,73,237,166,509l168,495l65,6
		c94,8,181,51,244,122c28,31,55,56,60,56C20341,7210,20466,7177,20613,7136z M19749,7128c20-18,46-40,59-48l23-15l-168-497l-168-498
		h-63c-36,0-86-8-117-19l-54-19l-24,31c-13,18-103,147-200,289l-177,256l14,34c8,18,18,44,23,56c6,18,109,79,403,242
		c217,120,399,219,404,219C19709,7160,19729,7145,19749,7128z M11804,6252c533-682,565-725,559-755c-3-18-11-37-17-44
		c-12-13-497-236-500-231c-2,2-13,24-25,50c-30,64-92,115-164,136c-52,15-58,20-67,52c-15,51-380,1508-380,1515
		C11210,7005,11310,6882,11804,6252z M20930,6866c0-9-251-1322-254-1332c-3-6-21-15-41-18c-20-4-53-22-74-41l-38-34l-369,128
		l-369,128l-6,50c-4,27-12,66-18,86c-12,35-11,38,16,61c15,13,278,238,583,500C20857,6820,20930,6880,20930,6866z M17848,6684
		c405-5,522-9,522-19c0-7,11-29,25-49l25-36l-791-1038c-435-570-793-1038-794-1040c-2-2-26,5-54,15l-51,18v935v935l53,19
		c37,13,68,35,107,75c54,54,60,65,95,186c1,6,65,9,171,8C17249,6692,17560,6688,17848,6684z M18953,6225l198-286l-26-52
		c-43-89-48-161-20-283l7-31l-1058-559c-582-307-1064-561-1072-562c-7-2,13,29,45,70s384,502,782,1024l725,950l75-4c42-2,87,1,101,6
		c14,6,30,11,35,11C18751,6510,18845,6382,18953,6225z M16490,6460c16-11,45-27,64-35l36-15v-953v-952l-31-20c-17-11-46-42-64-69
		l-32-50l-54,3c-30,1-492,33-1028,71c-965,67-999,71-988,101c2,7,2059,1937,2065,1938C16460,6480,16475,6471,16490,6460z
		 M20125,5431l370-128l22-44c12-24,22-46,22-50c1-3-158-257-353-565c-333-526-356-559-381-557c-15,1-29,3-30,5c-2,2-47,298-100,658
		l-97,655l24,14c12,8,50,43,83,77c33,35,62,63,65,63C19753,5560,19922,5502,20125,5431z M19242,5435l37-25l-103-217
		c-56-120-190-404-296-630l-193-413h-44c-53,0-76-11-125-58l-37-35l-738,118c-406,64-739,119-741,120c-2,2,52,33,120,68
		c803,426,2074,1097,2078,1097C19203,5460,19222,5449,19242,5435z M19445,5358c8-39,185-1257,185-1276c0-10-18-38-40-61
		c-23-24-44-56-47-73c-3-16-11-32-18-34c-16-6-697,105-708,115c-4,5-9,17-9,27c-1,10,117,271,262,579s283,602,306,653
		C19420,5382,19436,5398,19445,5358z M12504,5251c3-9,71-338,151-731s148-721,150-728c3-8,1-12-4-10c-21,8-970,1225-971,1244
		c0,12,6,26,13,32s135,67,286,135l273,125l49-25C12478,5279,12502,5260,12504,5251z M12780,5208c69-43,365-225,659-405l534-328
		l12-45c7-25,16-54,19-65c5-17-58-63-440-324l-447-304l-51,16c-28,9-66,19-84,22c-22,5-34,13-37,28c-3,12-71,342-151,732
		c-80,391-148,721-151,734C12636,5298,12629,5301,12780,5208z M15500,4291l955-66l18-39c15-32,16-41,5-52c-7-7-366-310-798-673
		c-734-618-786-659-801-643c-14,15-519,1492-519,1518c0,28,25,35,105,28C14509,4361,14975,4328,15500,4291z M14479,3537
		c128-379,231-690,229-693c-3-2-18-7-35-10c-30-6-39,4-324,326c-279,315-294,334-292,368c3,49-15,123-34,144c-14,16-6,41,98,293
		c62,151,116,271,119,267C14244,4228,14351,3915,14479,3537z M14055,4173c-9-21-50-121-92-223s-81-191-86-197c-5-7-19-13-32-13
		c-42,0-120-70-138-123c-2-8-74-15-238-23c-211-11-235-10-247,4c-7,9-11,21-9,26c4,11,837,585,850,586
		C14067,4210,14063,4193,14055,4173z M17673,4045c861-136,787-124,787-135c0-6-4-10-8-10c-5,0-240-119-523-265
		c-283-145-519-265-525-265s-17,14-24,30c-22,52-113,127-178,146c-31,9-63,19-70,23c-8,3-70,122-138,264l-125,257l28,35
		c15,19,34,35,41,35C16944,4160,17275,4108,17673,4045z M16860,3788c117-241,118-243,96-257c-54-37-124-120-139-166
		c-23-67-22-162,3-227l20-53l-217-217c-119-120-219-216-221-214c-2,3,67,310,152,684c86,373,156,682,156,686c0,3,7,6,16,6
		C16736,4030,16780,3951,16860,3788z M16564,3998c-4-13-75-320-158-682l-151-659l-43-15c-26-8-56-30-82-59l-41-46l-507,27
		c-279,14-512,26-519,26c-6,0-17,17-23,38c-7,20-18,46-25,58c-12,19,32,58,767,677c429,361,782,657,785,657
		C16569,4020,16568,4010,16564,3998z M19140,3830c173-28,323-54,333-58c15-6-48-61-312-270c-182-144-335-262-339-262
		c-5,0-20,134-34,298c-24,264-25,300-12,320c8,12,22,22,32,22C18817,3880,18967,3857,19140,3830z M18624,3778c3-18,12-114,21-213
		c8-99,18-204,21-232l6-53h-39c-69,0-164-60-201-127c-8-13-58-5-393,66c-211,45-393,85-404,90c-15,6,33,34,230,136
		c589,304,711,365,732,365C18614,3810,18620,3803,18624,3778z M13766,3441c40-36,95-53,144-45l36,6l285-322c156-177,284-326,284-332
		s-7-15-16-21c-12-8-151,64-630,328c-338,185-619,342-626,349c-8,7-9,16-3,26c7,11,57,17,232,26c123,6,231,12,242,12
		C13724,3469,13747,3457,13766,3441z M17913,3104c257-54,467-101,467-104s-203-90-452-194c-436-182-453-188-477-173
		c-28,17-28,17-84,259l-34,146l29,44c16,23,35,62,41,86c8,30,16,42,27,39C17438,3205,17655,3159,17913,3104z M16995,2969
		c40-18,62-21,132-17c45,2,83,2,83-1s16-73,35-155l35-149l-33-31c-18-17-39-41-47-53c-15-22-23-23-354-39c-248-12-341-13-349-5
		s50,73,218,241c127,127,230,230,231,230S16969,2980,16995,2969z"/>
	<path d="M34830,12479c-908-68-1785-419-2512-1005c-776-626-1393-1556-1673-2519c-54-184-133-525-164-700c-123-712-81-1554,115-2295
		c137-515,375-1042,681-1510c496-756,1142-1329,1928-1711c543-264,1037-396,1650-440c195-14,597-6,815,16
		c992,100,1877,477,2675,1139c146,122,491,464,604,601c178,215,427,562,419,585c-2,6-1262,822-1365,883c-7,5-25-15-48-53
		c-60-99-236-327-342-445c-280-310-628-572-1008-760c-272-135-488-210-765-265c-581-117-1135-85-1626,95c-243,88-607,292-827,463
		c-415,321-749,748-981,1258c-155,339-247,660-311,1082l-7,42h3890h3890l7,23c14,40,17,566,5,752c-28,437-122,929-260,1360
		c-341,1064-1078,2050-1980,2652c-579,386-1256,642-1925,727C35444,12489,35090,12499,34830,12479z M35536,10825
		c646-89,1189-367,1680-862c309-310,567-703,741-1127c39-94,93-242,93-253c0-2-1305-3-2900-3s-2900,1-2900,3c0,11,54,159,93,253
		c351,856,1034,1550,1808,1838c249,92,451,135,794,170C35030,10853,35430,10840,35536,10825z"/>
	<path class="st0" d="M40520,3755v-685h-190h-190v-255v-255h189h190l4-837c3-708,6-850,20-913c79-382,221-597,483-728
		c174-88,454-103,665-36l78,24l-14,33c-7,17-48,122-90,232c-43,110-78,201-79,202s-30-5-66-14c-84-19-210-13-271,14
		c-84,37-154,140-189,278c-34,134-40,280-40,1023v722h310h310v255v255h-310h-310v685v685h-250h-250V3755z"/>
	<path class="st0" d="M42020,3064c0-5,1221-2839,1261-2926l12-28h252h252l11,24c38,85,1262,2925,1262,2930c0,3-123,6-272,6h-273
		l-484-1123c-266-617-486-1124-488-1126c-1-2-6-2-9,1s-223,509-488,1124l-484,1119l-276,3C42144,3069,42020,3067,42020,3064z"/>
</g>
</svg>
