<?xml version="1.0" encoding="UTF-8"?>
<svg xmlns="http://www.w3.org/2000/svg" xmlns:xlink="http://www.w3.org/1999/xlink" width="5563px" height="943px" viewBox="0 0 5562 943" version="1.1">
<g id="surface1">
<path style=" stroke:none;fill-rule:nonzero;fill:#000000;fill-opacity:1;" d="M 2436.96875 2.179688 C 2407.121094 5.230469 2372.261719 12.636719 2343.28125 22.007812 C 2310.382812 32.683594 2262.230469 56.648438 2235.433594 75.605469 C 2209.941406 93.691406 2166.582031 136.394531 2148.28125 161.234375 C 2106.449219 218.101562 2079.214844 284.121094 2066.578125 358.417969 C 2054.15625 432.28125 2053.941406 505.488281 2065.707031 580.441406 C 2092.285156 747.996094 2194.6875 873.929688 2342.410156 921.210938 C 2416.273438 944.960938 2502.769531 949.320312 2580.988281 933.632812 C 2690.363281 911.625 2781.21875 848.21875 2835.90625 755.402344 C 2857.476562 719.015625 2876.210938 666.289062 2881.441406 627.941406 L 2882.96875 616.609375 L 2686.875 616.609375 L 2683.390625 631.207031 C 2666.394531 698.753906 2619.117188 744.945312 2548.089844 764.117188 C 2528.480469 769.347656 2522.597656 769.78125 2488.171875 769.78125 C 2453.964844 769.78125 2447.863281 769.347656 2428.253906 764.117188 C 2331.515625 738.40625 2272.472656 658.878906 2257.21875 533.816406 C 2253.953125 505.707031 2254.605469 431.191406 2258.308594 402.648438 C 2264.847656 356.023438 2279.007812 312.445312 2298.398438 279.328125 C 2310.382812 259.0625 2315.828125 251.875 2334.132812 233.570312 C 2360.929688 206.335938 2390.125 189.558594 2429.34375 179.101562 C 2447.429688 174.308594 2454.617188 173.652344 2487.082031 173.433594 C 2528.261719 173.433594 2542.421875 175.613281 2572.492188 187.378906 C 2607.570312 200.671875 2637.855469 225.292969 2658.117188 256.449219 C 2670.101562 274.535156 2676.199219 289.132812 2682.738281 315.277344 L 2687.09375 333.363281 L 2882.96875 333.363281 L 2881.441406 322.902344 C 2868.804688 235.097656 2833.074219 163.195312 2774.027344 106.328125 C 2718.03125 52.726562 2645.261719 18.957031 2556.804688 5.445312 C 2530.003906 1.308594 2463.550781 -0.4375 2436.96875 2.179688 Z M 2436.96875 2.179688 "/>
<path style=" stroke:none;fill-rule:nonzero;fill:#000000;fill-opacity:1;" d="M 2.179688 471.71875 L 2.179688 930.363281 L 189.554688 930.363281 L 189.554688 630.773438 C 189.554688 346.871094 189.773438 331.183594 193.476562 331.183594 C 196.308594 331.183594 221.582031 392.191406 315.707031 628.59375 L 434.449219 926.003906 L 498.722656 925.570312 L 562.996094 924.914062 L 681.742188 629.03125 C 779.785156 384.128906 800.921875 333.363281 804.1875 333.363281 C 808.109375 333.363281 808.328125 341.859375 808.328125 631.863281 L 808.328125 930.363281 L 995.703125 930.363281 L 995.703125 13.074219 L 756.472656 13.074219 L 743.835938 44.011719 C 736.648438 61.226562 680 199.582031 617.46875 351.882812 C 512.886719 607.460938 503.734375 628.59375 498.722656 629.246094 C 493.710938 629.902344 488.917969 618.570312 367.125 321.378906 L 240.753906 13.074219 L 2.179688 13.074219 Z M 2.179688 471.71875 "/>
<path style=" stroke:none;fill-rule:nonzero;fill:#000000;fill-opacity:1;" d="M 1154.753906 471.5 L 1154.753906 930.363281 L 1331.890625 930.363281 C 1437.125 930.363281 1519.046875 929.492188 1533.863281 927.964844 C 1644.328125 917.945312 1731.042969 881.558594 1798.804688 816.628906 C 1875.496094 742.765625 1915.804688 649.074219 1926.261719 519.652344 C 1934.324219 418.988281 1917.328125 315.496094 1880.289062 238.363281 C 1820.808594 115.042969 1717.316406 42.488281 1565.457031 18.085938 C 1546.9375 15.035156 1515.34375 14.378906 1349.320312 13.726562 L 1154.753906 12.855469 Z M 1535.171875 183.675781 C 1582.667969 192.390625 1623.410156 209.820312 1651.300781 233.570312 C 1706.640625 280.417969 1734.3125 359.726562 1734.3125 470.628906 C 1734.3125 554.511719 1718.84375 620.316406 1687.6875 667.59375 C 1660.886719 708.558594 1622.757812 735.792969 1571.558594 750.609375 C 1534.300781 761.503906 1518.613281 763.027344 1431.023438 764.117188 L 1348.667969 765.207031 L 1348.667969 178.230469 L 1433.203125 179.316406 C 1493.339844 180.191406 1522.535156 181.496094 1535.171875 183.675781 Z M 1535.171875 183.675781 "/>
<path style=" stroke:none;fill-rule:nonzero;fill:#000000;fill-opacity:1;" d="M 3021.972656 471.71875 L 3021.972656 930.363281 L 3215.886719 930.363281 L 3215.886719 605.714844 L 3356.851562 605.714844 L 3443.566406 768.039062 L 3530.285156 930.363281 L 3636.828125 930.363281 C 3695.21875 930.363281 3743.152344 929.710938 3743.152344 929.054688 C 3743.152344 928.183594 3700.445312 849.527344 3648.59375 754.09375 C 3596.519531 658.660156 3553.160156 579.132812 3552.507812 577.390625 C 3551.636719 574.996094 3554.6875 572.378906 3563.835938 567.804688 C 3600.222656 550.15625 3641.183594 515.511719 3662.535156 484.574219 C 3684.976562 452.109375 3702.191406 407.660156 3708.074219 367.132812 C 3718.09375 296.105469 3708.289062 224.203125 3680.835938 169.296875 C 3666.457031 140.316406 3655.347656 125.5 3631.160156 101.097656 C 3581.484375 51.636719 3519.609375 24.621094 3435.507812 15.46875 C 3422.214844 13.945312 3341.382812 13.074219 3218.0625 13.074219 L 3021.972656 13.074219 Z M 3394.328125 175.394531 C 3454.679688 185.199219 3493.027344 216.792969 3506.972656 268.214844 C 3512.199219 287.605469 3512.417969 335.757812 3507.1875 354.714844 C 3494.550781 400.90625 3464.265625 429.011719 3411.976562 442.523438 C 3394.761719 447.097656 3387.136719 447.316406 3304.78125 448.1875 L 3215.886719 449.277344 L 3215.886719 172.128906 L 3294.976562 172.128906 C 3355.109375 172.128906 3378.640625 173 3394.328125 175.394531 Z M 3394.328125 175.394531 "/>
<path style=" stroke:none;fill-rule:nonzero;fill:#000000;fill-opacity:1;" d="M 4112.890625 22.222656 C 4108.316406 34.644531 3799.800781 928.402344 3799.800781 929.492188 C 3799.800781 929.925781 3846.644531 930.144531 3903.726562 929.925781 L 4007.65625 929.273438 L 4041.425781 825.125 L 4075.199219 721.195312 L 4406.589844 721.195312 L 4440.363281 825.777344 L 4474.132812 930.363281 L 4578.496094 930.363281 C 4676.761719 930.363281 4682.644531 930.144531 4681.117188 926.441406 C 4680.464844 924.480469 4609.871094 719.886719 4524.246094 471.71875 C 4438.835938 223.546875 4368.027344 18.957031 4367.371094 16.777344 C 4365.847656 13.289062 4357.785156 13.074219 4241.003906 13.074219 L 4116.375 13.074219 Z M 4300.917969 395.894531 L 4356.914062 568.675781 L 4124.65625 568.675781 L 4133.152344 542.964844 C 4137.945312 529.019531 4162.785156 452.328125 4188.710938 372.582031 C 4214.640625 292.835938 4236.210938 226.382812 4236.644531 224.855469 C 4237.300781 223.113281 4239.261719 222.242188 4241.222656 222.675781 C 4243.835938 223.113281 4259.304688 268.433594 4300.917969 395.894531 Z M 4300.917969 395.894531 "/>
<path style=" stroke:none;fill-rule:nonzero;fill:#000000;fill-opacity:1;" d="M 4795.503906 471.71875 L 4795.503906 930.363281 L 4989.414062 930.363281 L 4989.414062 641.449219 C 4989.414062 384.128906 4989.851562 352.753906 4992.683594 353.40625 C 4994.644531 353.84375 5085.5 483.484375 5194.875 641.667969 L 5393.578125 929.273438 L 5478.117188 929.925781 L 5562.4375 930.363281 L 5562.4375 13.074219 L 5368.523438 13.074219 L 5368.523438 301.769531 C 5368.523438 606.585938 5368.742188 597.4375 5359.375 586.542969 C 5357.414062 584.582031 5268.082031 454.722656 5160.449219 297.847656 L 4965.011719 13.074219 L 4795.503906 13.074219 Z M 4795.503906 471.71875 "/>
</g>
</svg>
