<svg width="960" height="640" viewBox="0 0 960 640" fill="none" xmlns="http://www.w3.org/2000/svg">
  <rect width="960" height="640" rx="32" fill="#090909"/>
  <rect x="24" y="24" width="912" height="592" rx="24" fill="url(#paint0_radial)" fill-opacity="0.16"/>
  <rect x="24.5" y="24.5" width="911" height="591" rx="23.5" stroke="#FFFFFF" stroke-opacity="0.08"/>
  <path d="M96 168H864" stroke="#1C1C1C" stroke-width="2"/>
  <path d="M96 472H864" stroke="#1C1C1C" stroke-width="2"/>
  <circle cx="242" cy="320" r="112" fill="#111111" stroke="#2A2A2A" stroke-width="6"/>
  <circle cx="242" cy="320" r="24" fill="#EF4242"/>
  <circle cx="718" cy="320" r="112" fill="#111111" stroke="#2A2A2A" stroke-width="6"/>
  <path d="M665 311C688 279 748 279 771 311" stroke="#FFFFFF" stroke-width="14" stroke-linecap="round"/>
  <path d="M676 355C703 378 733 378 760 355" stroke="#EF4242" stroke-width="14" stroke-linecap="round"/>
  <path d="M198 287C221 264 263 264 286 287" stroke="#FFFFFF" stroke-width="12" stroke-linecap="round"/>
  <path d="M198 353C221 330 263 330 286 353" stroke="#FFFFFF" stroke-width="12" stroke-linecap="round"/>
  <text x="480" y="192" fill="#EF4242" font-family="Arial, sans-serif" font-size="38" font-weight="700" text-anchor="middle">LIVE FOOTAGE OF ME SHOOTING MY SHOT</text>
  <text x="480" y="272" fill="#FFFFFF" font-family="Arial, sans-serif" font-size="64" font-weight="800" text-anchor="middle">me trying to act normal</text>
  <text x="480" y="352" fill="#FFFFFF" font-family="Arial, sans-serif" font-size="64" font-weight="800" text-anchor="middle">while asking you out</text>
  <text x="480" y="448" fill="#B3B3B3" font-family="Arial, sans-serif" font-size="28" font-weight="600" text-anchor="middle">please ignore the emotional support panic in the background</text>
  <defs>
    <radialGradient id="paint0_radial" cx="0" cy="0" r="1" gradientUnits="userSpaceOnUse" gradientTransform="translate(480 96) rotate(90) scale(520 720)">
      <stop stop-color="#EF4242"/>
      <stop offset="1" stop-color="#EF4242" stop-opacity="0"/>
    </radialGradient>
  </defs>
</svg>
