<?xml version="1.0" encoding="utf-8"?>
<!-- Generator: Adobe Illustrator 27.5.0, SVG Export Plug-In . SVG Version: 6.00 Build 0)  -->
<svg version="1.1" id="Layer_1" xmlns="http://www.w3.org/2000/svg" xmlns:xlink="http://www.w3.org/1999/xlink" x="0px" y="0px"
	 viewBox="0 0 1080 1080" style="enable-background:new 0 0 1080 1080;" xml:space="preserve">
<path d="M486.7,27.6c-8.2,2.2-14.6,8.5-16.8,16.6l-0.9,3.5l-47.8,11.9c-26.3,6.6-48.5,12.1-49.4,12.3c-1,0.3-2.5-1.1-4.2-3.6
	c-1.6-2.3-4.9-5.3-7.9-7c-11-6.3-22.6-4.7-31.4,4.3c-6.1,6.3-7.9,11.7-7.1,21.4l0.5,6.7l-49.6,29.8l-49.5,29.9l-4.1-1.9
	c-5.8-2.6-15.8-2.4-21.2,0.5c-9.3,4.8-14.2,14.3-13,24.9c0.4,3.2,0.8,6.9,0.9,8.3c0.1,1.8-13.8,23.2-50.7,77.5
	c-28,41.2-51.7,76.2-52.8,77.7c-1.8,2.6-1.9,2.7-6,1.2c-8.4-3-18.4-1-25.6,5.1c-13.4,11.5-10.6,34.5,5.2,42.3
	c2.5,1.3,4.6,2.8,4.6,3.4c0,1.9-18.1,140.3-18.5,141.5c-0.2,0.6-1.8,1.4-3.6,1.8c-1.9,0.4-5.2,2.7-7.9,5.4c-5.9,5.9-7.6,12-5.9,20.3
	c0.9,4.1,2.1,6.1,6,10l4.9,4.9l20,79.2l20,79.2l-2.2,1.5c-9,6.1-12.9,12.4-13.6,21.9c-0.9,13.4,6.1,24.7,17.7,28.6
	c6.4,2.1,16,1.7,21-0.8c2.8-1.4,3.7-1.5,4.7-0.5c3.6,3.9,97.4,123.8,97.4,124.6c0,0.5-0.8,2.4-1.7,4.3c-2.5,4.8-2.5,20.1,0,24.6
	c2.9,5.5,7.8,10.3,13.1,13.1c4.3,2.2,6.4,2.7,13.1,2.7c8.1,0,9.9-0.6,19.1-6.4c1.8-1.2,8,2,65.5,33.6l63.4,34.9l0.6,7.5
	c0.7,8.6,3.1,14.1,8.6,19.5c9,8.8,23.2,11.4,34.3,6.2c6.7-3.1,13.3-9.6,15.7-15.5c1.6-3.7,2.2-4.3,4.8-4.3c1.7,0,23.5,1.1,48.5,2.5
	s46.9,2.5,48.5,2.5c2.6,0,3.3,0.5,4.4,3.5c3.6,10.2,15,16.1,25.7,13.4c4.5-1.2,12-7.2,14.9-12.1c0.9-1.4,5.4-1.9,35.7-3.3l34.8-1.7
	l2.7,3.3c6.7,8,19.9,8,26.6,0c1.5-1.8,3-4.5,3.3-5.9c1.4-6.6,0.5-6.1,46-25.1c24.2-10.1,44.6-18.6,45.5-18.8
	c0.8-0.2,3.8,1.1,6.7,3.1c8.7,5.8,19,6,27.5,0.6c7.8-4.9,12.6-14.8,11.2-23.6l-0.6-4.2l35.8-28.3c19.7-15.5,36.3-28.6,37-29.1
	c0.7-0.6,2.3-0.3,4.2,0.6c4.6,2.4,13.9,2.1,19.2-0.7c6.6-3.5,10.2-9.3,10.7-17.1c0.2-3.5-0.1-8-0.7-9.9l-1.2-3.6l36.7-58
	c34.2-54.1,36.9-58.1,39.5-58.1c4,0,8-1.7,11.2-4.8c7.4-7,8.3-16.7,2.2-25.5l-2.4-3.6l13.9-73.3c7.7-40.2,14.1-73.7,14.4-74.4
	c0.3-0.7,1.9-1.5,3.7-1.9c1.9-0.4,5.2-2.7,7.9-5.4c3.8-3.8,5-5.9,5.9-9.9c2.2-10.4-2.8-20.8-12-24.8c-2.4-1.1-4.1-2.6-4.4-3.9
	c-0.3-1.9-4.6-73.1-4.5-76.6c0-0.9,2.4-3.2,5.4-5.2c10-6.6,15.3-17.5,14.4-29.5c-1.2-15.9-12.7-28-28.5-30l-5.5-0.7l-27.1-51.4
	l-27-51.3l3.3-2.6c7-5.5,10.1-19.1,6.4-28c-1.9-4.7-6.8-9.8-11.9-12.5c-5.1-2.7-16.4-3-21.1-0.5l-3,1.7l-58.9-58.9l-58.8-58.8
	l-0.1-8.9c-0.1-7.7-0.4-9.4-2.8-13.4c-5.8-9.9-14.2-14.4-25.5-13.7c-7.5,0.4-12.7,2.5-17.4,6.9c-1.7,1.6-3.6,2.9-4.3,2.9
	c-0.6,0-31.7-11.7-69.1-25.9l-68-25.9l-1.6-4.2c-3.5-9.4-11.2-15-20.5-15c-6.8,0-14.7,4-18.1,9.1c-2.1,3.2-3.2,3.9-5.7,3.9
	c-1.7,0-19.4-1.4-39.4-3l-36.2-3l-3.3-3.6C505,28.1,495.2,25.3,486.7,27.6z M557.9,55.8c18.4,1.5,33.7,3.1,33.8,3.6
	c0.2,0.5,2,3.2,3.9,6.1l3.6,5.2l-2.3,6.5c-1.2,3.6-9,25.5-17.3,48.8c-14.4,40.6-15.1,42.3-17.4,42c-2.1-0.3-6.2-7.3-28.9-49.1
	l-26.5-48.7l3.6-3.7c2.2-2.3,4.1-5.6,5.1-9l1.5-5.3l3.7,0.5C522.7,53,539.5,54.4,557.9,55.8z M479.3,70c2,1.3,5.9,3,8.8,3.6l5.2,1.2
	l26.8,49.4c24.4,44.8,26.8,49.7,25.7,51.7c-0.7,1.3-1.5,2.3-1.9,2.3c-0.3,0-39-20-86-44.4c-50.5-26.3-85.6-45.1-85.8-46
	c-0.2-0.9-0.2-1.6,0-1.6c0.2-0.1,22.6-5.6,49.8-12.4l49.5-12.2l2.2,2.9C474.8,66.2,477.4,68.6,479.3,70z M700.2,89.9
	c50.2,19.1,67.7,26.2,67.5,27.3c-0.2,0.9-29.8,11.8-88.8,32.7c-48.7,17.2-89.2,31.2-90.1,31.3c-0.9,0-2.2-1.2-2.9-2.6
	c-0.8-1.4-2.7-3.5-4.2-4.6c-1.5-1-2.8-2.4-2.8-3c0-0.8,30.7-87.8,33.5-95.1c0.4-1,1.8-1.7,3.4-1.7c4-0.1,10.4-3.4,13.2-6.8
	c1.3-1.7,2.6-3.1,2.9-3.2C632.2,64.2,662.9,75.8,700.2,89.9z M470.6,156.1l68.1,35.5l0.4,4.3l0.3,4.4l-54,27.4
	c-29.7,15-57.4,29-61.7,31.1l-7.6,3.7l-3.2-2.7c-4.9-4.1-10.9-6.8-16.5-7.5l-5-0.6l-16.3-72.4l-16.2-72.4l3.2-2.7l3.3-2.8l18.5,9.7
	C394.1,116.4,433.1,136.6,470.6,156.1z M341.6,108.8c1.8,0.3,3.5,1.4,3.7,2.3c0.3,0.9,7.5,32.9,16.1,71.1s15.8,70.2,16,71.1
	c0.3,1-1.2,2.7-4.2,4.8l-4.8,3.4l-3.5-2.1c-1.9-1.1-32.3-20-67.5-42.1l-64-40.1l-0.7-6.3c-0.5-4.4-0.4-6.5,0.5-7.3
	c0.7-0.7,22.9-14.2,49.5-30.2l48.2-29l3.7,1.9C336.6,107.3,339.8,108.5,341.6,108.8z M776.8,138.3l6.3,6.2l-4.2,102.1
	c-2.2,56.1-4.2,102.1-4.3,102.2c-0.1,0-2,0.8-4.3,1.7l-4,1.5l-88-74l-87.9-74l0.2-4c0.1-2.2,0.3-4.2,0.5-4.3
	c0.2-0.1,40.6-14.5,89.8-31.8c49.2-17.4,89.5-31.6,89.5-31.7C770.5,132.2,773.3,135,776.8,138.3z M872.6,198.4l58.1,58.3l-1.2,6
	l-1.2,5.9l-31.9,13.3c-17.5,7.3-32.1,13.3-32.4,13.2c-0.3,0-2-1.9-3.6-4.2c-4.1-5.7-11.5-10.4-18.4-11.8l-5.7-1.2L821,212.8
	c-8.5-35.8-15.6-65.6-15.8-66.2c-0.3-0.9,6.9-6.2,8.7-6.4C814.2,140.2,840.6,166.4,872.6,198.4z M809.4,224.8
	c6.9,29.1,12.5,53.7,12.5,54.6c0,1-1.3,2.4-2.9,3.2c-4.6,2.4-11.8,11.2-13.6,16.7c-2.3,7-1.7,17.8,1.3,24.1c1.4,2.7,2,5.3,1.6,6
	c-0.4,0.7-4.1,5.9-8.2,11.5c-7,9.9-9.6,12-10.8,8.9c-0.9-2.3,6.3-179.2,7.3-178.3C796.8,171.7,802.6,195.7,809.4,224.8z
	 M290.6,229.5c34.5,21.7,63.9,40,65.3,40.8c2,1,2.2,1.4,0.8,1.7c-1.6,0.3-92.1-4.1-108.5-5.4L240,266l-1.6-4.7
	c-2.1-6.5-7.4-12.4-14-15.7c-3-1.4-5.5-2.7-5.6-2.8c-0.6-1-2.3-45.2-1.7-45.4c0.5-0.2,3-1.9,5.6-3.7c2.6-1.8,4.8-3.3,4.9-3.4
	C227.7,190.2,256.1,207.9,290.6,229.5z M201.8,197.8c0.3,0.3,0.8,7.3,1.2,15.7c0.4,8.4,1,18.5,1.3,22.5l0.4,7.2l-3.5,1.5
	c-12.9,5.4-20.1,20.5-16,33.7l1.5,4.7l-46,32.6c-25.4,17.9-46.2,32.4-46.4,32.2c-0.3-0.2,5.5-9.1,12.8-19.8
	c7.3-10.7,30.4-44.8,51.3-75.7c35.7-52.8,38.2-56.2,40.5-55.6C200.3,197.1,201.6,197.6,201.8,197.8z M669.7,289.1l86.9,73.2
	l-1.4,4.2c-0.8,2.3-1.7,4.5-2.1,4.9c-0.4,0.3-73.6,14.9-162.6,32.4c-151.8,29.8-162,31.7-163,30c-0.6-1-2.3-3.4-3.8-5.3
	c-1.6-2-2.8-3.9-2.8-4.2s30.3-46.7,67.4-103.1c42.9-65.2,67.9-102.4,68.7-102.1c0.8,0.2,4.3,0.3,7.9,0.4c4.8,0,7.6-0.6,10.5-2.1
	c2.2-1.2,4.7-2,5.6-1.8S621.8,248.9,669.7,289.1z M539.9,216.6c0,0.3-3.5,5.8-7.8,12.3c-4.3,6.5-33.4,50.7-64.7,98.3
	c-31.2,47.6-57.1,86.9-57.5,87.3c-0.4,0.4-3.9-0.3-7.8-1.5l-7.2-2.3l0.1-12c0.1-20.5,2.4-83.9,3.2-85.1c0.3-0.6,1.9-1.4,3.4-1.7
	c4.7-1,12.3-6.8,15.8-12.1c3.9-5.8,5.8-12.9,5.3-20l-0.3-4.8l58-29.3C538,216.7,539.9,215.8,539.9,216.6z M295.9,283.2
	c31.1,1.6,58.4,3,60.7,3h4.2l1.5,5.4c2.2,7.5,8,14.5,15.3,18.4l6,3.2l-0.4,11.7c-0.3,6.5-1,28.2-1.6,48.2l-1.2,36.4l-6.1,1.3
	c-3.4,0.7-7.5,1.9-9.2,2.8c-1.7,0.9-3.6,1.6-4.1,1.6c-1.5,0-123.1-132-123.1-133.6c0-0.8,0.3-1.4,0.8-1.4
	C239.1,280.2,264.8,281.6,295.9,283.2z M938,285.6c2.1,1.9,5.7,4,8.1,4.6c2.4,0.7,4.9,1.5,5.6,1.8c0.8,0.4,13.4,23.6,28.2,51.6
	l26.9,50.9l-4.1,3.1c-2.3,1.7-4.6,3.5-5.3,4c-0.8,0.6-22.5-13.6-65.8-43c-61.4-41.7-64.7-44-64.4-46.7c0.2-2.7,1.4-3.3,32.2-16.2
	c17.6-7.4,32.6-13.4,33.4-13.5C933.5,282.2,935.9,283.7,938,285.6z M201.4,296.3c5.9,2.6,16.9,2.3,22.9-0.6c2.5-1.2,4.3-1.5,5.1-0.9
	c0.7,0.5,25.9,27.7,56,60.4c30.2,32.7,56.8,61.6,59.2,64.1l4.5,4.6l-3.4,4.5c-1.8,2.4-4,5.4-4.8,6.7l-1.6,2.3l-122.4-33.2
	C149.5,386,94,370.7,93.6,370.2c-0.5-0.4-0.6-1.6-0.3-2.6c0.6-1.7,100.9-73.4,102.7-73.4C196.3,294.2,198.8,295.1,201.4,296.3z
	 M924.8,370.8c34.4,23.4,63.3,42.9,64.1,43.4c0.8,0.5,1.2,1.1,1,1.4c-0.4,0.3-180-43.5-183.6-44.8c-0.6-0.2-1.4-1.7-1.7-3.3
	c-0.3-1.5-0.8-3.5-1.2-4.4c-0.3-0.9,2.4-5.7,7.6-13c4.5-6.3,8.3-11.6,8.5-11.8s2.9,0.4,6,1.4c11,3.5,24.5,0.1,32.4-8
	c1.8-1.9,3.6-3.5,3.8-3.5S890.3,347.4,924.8,370.8z M198.6,413.7c52.4,14.2,95.1,26,94.8,26.3c-0.3,0.4-119.9,3.1-141.1,3.2h-8.2
	l-2.6-5.5c-5.5-11.2-18.4-17.1-31.1-14.1l-3,0.6l-10-19.7c-5.5-10.9-10.1-20.1-10.3-20.5c-0.2-0.3,3.4,0.4,8,1.6
	C99.7,386.9,146.3,399.5,198.6,413.7z M757.5,389.8c-0.2,0.6-26.4,35.9-58.2,78.5s-63.6,85.2-70.6,94.7l-12.9,17.3l-2.7-1.9
	c-7.4-5.3-18.6-6.5-27.5-3.2l-5.5,2.1l-73.8-48.7c-40.7-26.7-74.3-48.9-74.7-49.4c-0.5-0.4-0.1-3.1,0.7-6.1c1-3.2,1.6-9,1.6-14.8
	v-9.6l160.8-31.6c144.1-28.3,160.8-31.4,162-30C757.4,387.9,757.8,389.1,757.5,389.8z M899.4,408.2c49.5,12.2,90.2,22.3,90.6,22.6
	c0.4,0.2,0.9,1.6,1.2,3.2c0.3,1.5,2.2,5.2,4.1,8l3.5,5.2L975.2,476c-12.9,15.8-23.8,28.7-24.2,28.6c-0.3,0-3.3-1.3-6.6-2.9
	c-5.2-2.6-7.2-3-14.5-3c-4.7,0-10.1,0.4-12,0.8l-3.6,0.8l-53.9-56.7c-29.7-31.2-54.2-57.1-54.4-57.7c-0.2-0.5,0.5-0.7,1.5-0.3
	C808.6,385.9,849.9,396.1,899.4,408.2z M85.3,411.6L95.9,432l-2.8,4.8c-2.3,4.2-2.7,6-2.7,12.9c0,8,0.9,11.3,5.1,17.6l1.7,2.6
	l-19.9,28.6c-10.9,15.8-20,28.3-20.2,27.8c-0.1-0.4,3.6-30.4,8.3-66.5c4.7-36.1,8.5-66.3,8.5-67.1c0-0.8,0.2-1.5,0.4-1.5
	C74.6,391.2,79.5,400.4,85.3,411.6z M849.2,452.4l53.4,56.1l-3.2,4.3c-5.4,7.1-7,12.5-7,24l0.1,10.1l-29,15.9
	c-15.9,8.7-32.8,18-37.6,20.7l-8.7,4.7l-2.7-4c-2.4-3.6-8.9-9.3-11.9-10.3c-0.8-0.2-2.9-27-6.8-87.8c-5.1-79.8-5.5-87.5-4-88.6
	c0.9-0.7,2.1-1.3,2.8-1.3C795.3,396.2,819.9,421.5,849.2,452.4z M775.9,400.9c0.6,0.7,11.1,160.9,11,167.9c0,2.7-0.5,3.3-5.5,5.3
	c-6.3,2.6-13.7,10.1-15.6,15.8l-1.2,3.6l-43.1-0.7c-23.7-0.3-54.9-0.7-69.4-0.8c-19.5-0.1-26.2-0.4-26-1.3
	c0.2-0.6,32.4-44.2,71.7-96.7l71.3-95.6l3.1,0.9C773.9,399.8,775.6,400.5,775.9,400.9z M334.9,458.4v5.3l-135.6,40.4
	c-74.5,22.2-135.7,40.2-135.9,40s10.1-15.4,22.8-33.7l23.2-33.3l8-0.3c5.9-0.1,9.1-0.8,12.1-2.3c4.8-2.6,11-9.2,13-13.9l1.4-3.4
	l8.8-0.1c10.1-0.1,174.1-3.5,179-3.8l3.2-0.1V458.4z M1020.6,456.6c0.1,0.1,1.3,17.9,2.6,39.5l2.4,39.3l-5.3,5.2
	c-3.5,3.3-5.6,6.3-6,8.4c-0.4,1.8-1,3.4-1.3,3.7c-0.4,0.2-11.1-2.4-23.7-5.9l-22.9-6.2l-0.6-8c-0.4-5-1.4-9.5-2.7-12.3
	c-2.1-4.2-2.1-4.5-0.4-6.7c0.9-1.2,12.1-14.9,24.7-30.4l23-28.1l5,0.7C1018.2,456.1,1020.5,456.5,1020.6,456.6z M340.7,482.1
	c1.2,2.7,4.1,6.9,6.3,9.5c2.6,2.9,3.8,5,3.3,5.8C348.7,500,194.6,713.7,193.5,715c-1,1-1.8,1-4.2-0.3c-1.6-0.8-5.1-1.5-7.9-1.5
	l-5-0.1L120,641l-56.3-72.1l1.8-5.5l1.9-5.6l28-8.3c15.4-4.5,76.2-22.7,135-40.2c58.9-17.6,107.2-32,107.5-32
	S339.4,479.5,340.7,482.1z M482.6,529.9c32.3,21.2,65.2,42.8,73,47.9l14.2,9.3l-2.1,4.8c-2.1,4.5-2.7,13.9-1.6,21.9
	c0.2,1.6-22.3,23.2-102,97.8c-56.3,52.7-102.5,95.6-102.7,95.4s6.6-66.5,15.1-147.3c8.4-80.9,15.4-147.9,15.4-149.1
	c0-1.7,1.1-2.4,6.3-3.8c7.8-2.1,15-6.2,20.2-11.4c2.2-2.3,4.3-4.1,4.7-4.1C423.5,491.2,450.3,508.6,482.6,529.9z M372.2,507.1
	c3.9,1.1,5.7,2.1,5.7,3.2c0,2.3-29.9,288.9-30.5,292.6c-0.5,2.7-1.2,3.4-4.2,4.2c-2,0.6-5.3,2.4-7.4,4.1c-2.1,1.6-4,3-4.3,3
	c-0.5,0-79.4-48.3-121.4-74.2l-11.3-7l1.9-3.1c1-1.8,32.8-46.2,70.7-98.7c99.4-138,91.5-127.2,93.4-126.4
	C365.7,505.2,369,506.2,372.2,507.1z M990.2,561.6c14.8,4,27.3,7.8,27.9,8.4c0.7,0.7-16.4,15.9-54.8,48.8
	c-30.8,26.2-58.5,50-61.7,52.7c-4.7,4.1-6.2,4.9-7.5,4c-1-0.5-1.8-1.6-2-2.4c-0.1-0.8,7.3-23.7,16.6-50.9l16.8-49.5l6.5-0.6
	c9.4-0.8,18.1-5.1,24.4-12.2c2.8-3.1,5.5-5.6,6-5.6C963,554.2,975.5,557.5,990.2,561.6z M903.8,562.4c2,1.8,4.6,4,5.9,4.8l2.3,1.5
	l-16.8,49.7l-16.8,49.8h-6.3c-3.6,0-8.6,0.8-11.7,1.9L855,672l-2.4-3.1c-1.3-1.8-10.3-14.7-20-28.9l-17.7-25.6l1.4-3.4
	c0.8-1.8,1.8-4.4,2.3-5.6c0.6-1.8,10.9-7.9,40.3-24.2c21.7-12,39.9-21.9,40.4-21.9C899.8,559.2,901.8,560.7,903.8,562.4z M109.3,650
	c53.3,68.2,56.5,72.5,55.9,75.5c-0.3,1.8-1.1,3.7-1.7,4.4c-1.2,1.3-49.7,23.6-50,23.1c-0.2-0.2-1.3-2.4-2.5-5
	c-3-6.4-9.2-11.5-16.4-13.6c-5.2-1.5-5.8-2-6.7-5.2c-1.5-5.1-38-150.8-38-151.5C49.9,574.7,59.9,587,109.3,650z M1021.9,588.6
	c0,0.9-25.1,132.2-25.4,133.2c-0.3,0.6-2.1,1.5-4.1,1.8c-2,0.4-5.3,2.2-7.4,4.1l-3.8,3.4l-36.9-12.8l-36.9-12.8l-0.6-5
	c-0.4-2.7-1.2-6.6-1.8-8.6c-1.2-3.5-1.1-3.8,1.6-6.1c1.5-1.3,27.8-23.8,58.3-50C1014.6,593.2,1021.9,587.2,1021.9,588.6z
	 M713.7,606.8c40.5,0.5,52.2,0.9,52.2,1.9c0,0.7,1.1,2.9,2.5,4.9l2.5,3.6L691.8,721c-43.5,57-79.3,103.8-79.4,104
	c-0.2,0.2-2.6-0.5-5.4-1.5l-5.1-1.8v-93.5v-93.5l5.3-1.9c3.7-1.3,6.8-3.5,10.7-7.5c5.4-5.4,6-6.5,9.5-18.6c0.1-0.6,6.5-0.9,17.1-0.8
	C653.8,606,684.9,606.4,713.7,606.8z M824.2,652.7l19.8,28.6l-2.6,5.2c-4.3,8.9-4.8,16.1-2,28.3l0.7,3.1l-105.8,55.9
	c-58.2,30.7-106.4,56.1-107.2,56.2c-0.7,0.2,1.3-2.9,4.5-7c3.2-4.1,38.4-50.2,78.2-102.4l72.5-95l7.5,0.4c4.2,0.2,8.7-0.1,10.1-0.6
	c1.4-0.6,3-1.1,3.5-1.1C804,624.2,813.4,637,824.2,652.7z M577.9,629.2c1.6,1.1,4.5,2.7,6.4,3.5l3.6,1.5v95.3v95.2l-3.1,2
	c-1.7,1.1-4.6,4.2-6.4,6.9l-3.2,5l-5.4-0.3c-3-0.1-49.2-3.3-102.8-7.1c-96.5-6.7-99.9-7.1-98.8-10.1
	c0.2-0.7,205.9-193.7,206.5-193.8C574.9,627.2,576.4,628.1,577.9,629.2z M941.4,732.1l37,12.8l2.2,4.4c1.2,2.4,2.2,4.6,2.2,5
	c0.1,0.3-15.8,25.7-35.3,56.5c-33.3,52.6-35.6,55.9-38.1,55.7c-1.5-0.1-2.9-0.3-3-0.5c-0.2-0.2-4.7-29.8-10-65.8l-9.7-65.5l2.4-1.4
	c1.2-0.8,5-4.3,8.3-7.7c3.3-3.5,6.2-6.3,6.5-6.3C904.2,719.2,921.1,725,941.4,732.1z M853.1,731.7l3.7,2.5l-10.3,21.7
	c-5.6,12-19,40.4-29.6,63l-19.3,41.3h-4.4c-5.3,0-7.6,1.1-12.5,5.8l-3.7,3.5l-73.8-11.8c-40.6-6.4-73.9-11.9-74.1-12
	c-0.2-0.2,5.2-3.3,12-6.8c80.3-42.6,207.4-109.7,207.8-109.7C849.2,729.2,851.1,730.3,853.1,731.7z M873.4,739.4
	c0.8,3.9,18.5,125.7,18.5,127.6c0,1-1.8,3.8-4,6.1c-2.3,2.4-4.4,5.6-4.7,7.3c-0.3,1.6-1.1,3.2-1.8,3.4c-1.6,0.6-69.7-10.5-70.8-11.5
	c-0.4-0.5-0.9-1.7-0.9-2.7c-0.1-1,11.7-27.1,26.2-57.9s28.3-60.2,30.6-65.3C870.9,737,872.5,735.4,873.4,739.4z M179.3,750.1
	c0.3,0.9,7.1,33.8,15.1,73.1s14.8,72.1,15,72.8c0.3,0.8,0.1,1.2-0.4,1c-2.1-0.8-97-122.5-97.1-124.4c0-1.2,0.6-2.6,1.3-3.2
	c0.7-0.6,13.5-6.7,28.6-13.5l27.3-12.5l4.9,2.5C176.7,747.3,179.1,749.2,179.3,750.1z M206.9,754.4c6.9,4.3,36.5,22.5,65.9,40.5
	l53.4,32.8l1.2,4.5c0.7,2.5,1.6,5.4,1.9,6.5c0.5,1.7-5.8,6.3-44,32.4l-44.7,30.4l-5.1-1.6c-2.8-0.9-6.6-1.9-8.4-2.2
	c-2.2-0.5-3.4-1.3-3.7-2.8c-0.3-1.2-7.1-34.2-15.1-73.2c-8-39.1-14.8-72.1-15.1-73.4C192.5,745.4,191.8,745.1,206.9,754.4z
	 M478.9,846.1l95.5,6.6l1.8,3.9c1.5,3.2,1.6,4.1,0.5,5.2c-0.7,0.7-36.6,31-79.8,67.3c-73.4,61.8-78.6,65.9-80.1,64.3
	c-1.4-1.5-51.9-149.2-51.9-151.8c0-2.8,2.5-3.5,10.5-2.8C379.8,839.1,426.4,842.4,478.9,846.1z M376.8,921.5
	c12.8,37.9,23.1,69,22.9,69.3c-0.3,0.2-1.8,0.7-3.5,1c-3,0.6-3.9-0.4-32.4-32.6c-27.9-31.5-29.4-33.4-29.2-36.8
	c0.3-4.9-1.5-12.3-3.4-14.4c-1.4-1.6-0.6-4.1,9.8-29.3c6.2-15.1,11.6-27.1,11.9-26.7C353.3,852.4,364,883.7,376.8,921.5z
	 M334.4,857.9c-0.9,2.1-5,12.1-9.2,22.3c-4.2,10.2-8.1,19.1-8.6,19.7c-0.5,0.7-1.9,1.3-3.2,1.3c-4.2,0-12,7-13.8,12.3
	c-0.2,0.8-7.4,1.5-23.8,2.3c-21.1,1.1-23.5,1-24.7-0.4c-0.7-0.9-1.1-2.1-0.9-2.6c0.4-1.1,83.7-58.5,85-58.6
	C335.6,854.2,335.2,855.9,334.4,857.9z M696.2,870.7c86.1,13.6,78.7,12.4,78.7,13.5c0,0.6-0.4,1-0.8,1c-0.5,0-24,11.9-52.3,26.5
	c-28.3,14.5-51.9,26.5-52.5,26.5c-0.6,0-1.7-1.4-2.4-3c-2.2-5.2-11.3-12.7-17.8-14.6c-3.1-0.9-6.3-1.9-7-2.3
	c-0.8-0.3-7-12.2-13.8-26.4l-12.5-25.7l2.8-3.5c1.5-1.9,3.4-3.5,4.1-3.5C623.3,859.2,656.4,864.4,696.2,870.7z M614.9,896.4
	c11.7,24.1,11.8,24.3,9.6,25.7c-5.4,3.7-12.4,12-13.9,16.6c-2.3,6.7-2.2,16.2,0.3,22.7l2,5.3l-21.7,21.7
	c-11.9,12-21.9,21.6-22.1,21.4c-0.2-0.3,6.7-31,15.2-68.4c8.6-37.3,15.6-68.2,15.6-68.6c0-0.3,0.7-0.6,1.6-0.6
	C602.5,872.2,606.9,880.1,614.9,896.4z M585.3,875.4c-0.4,1.3-7.5,32-15.8,68.2l-15.1,65.9l-4.3,1.5c-2.6,0.8-5.6,3-8.2,5.9
	l-4.1,4.6l-50.7-2.7c-27.9-1.4-51.2-2.6-51.9-2.6c-0.6,0-1.7-1.7-2.3-3.8c-0.7-2-1.8-4.6-2.5-5.8c-1.2-1.9,3.2-5.8,76.7-67.7
	c42.9-36.1,78.2-65.7,78.5-65.7C585.8,873.2,585.7,874.2,585.3,875.4z M842.9,892.2c17.3,2.8,32.3,5.4,33.3,5.8
	c1.5,0.6-4.8,6.1-31.2,27c-18.2,14.4-33.5,26.2-33.9,26.2c-0.5,0-2-13.4-3.4-29.8c-2.4-26.4-2.5-30-1.2-32c0.8-1.2,2.2-2.2,3.2-2.2
	C810.6,887.2,825.6,889.5,842.9,892.2z M791.3,897.4c0.3,1.8,1.2,11.4,2.1,21.3c0.8,9.9,1.8,20.4,2.1,23.2l0.6,5.3h-3.9
	c-6.9,0-16.4,6-20.1,12.7c-0.8,1.3-5.8,0.5-39.3-6.6c-21.1-4.5-39.3-8.5-40.4-9c-1.5-0.6,3.3-3.4,23-13.6
	c58.9-30.4,71.1-36.5,73.2-36.5C790.3,894.2,790.9,894.9,791.3,897.4z M305.5,931.1c4,3.6,9.5,5.3,14.4,4.5l3.6-0.6l28.5,32.2
	c15.6,17.7,28.4,32.6,28.4,33.2c0,0.6-0.7,1.5-1.6,2.1c-1.2,0.8-15.1-6.4-63-32.8c-33.8-18.5-61.9-34.2-62.6-34.9
	c-0.8-0.7-0.9-1.6-0.3-2.6c0.7-1.1,5.7-1.7,23.2-2.6c12.3-0.6,23.1-1.2,24.2-1.2C301.3,928.3,303.6,929.5,305.5,931.1z M720.2,964.8
	c25.7,5.4,46.7,10.1,46.7,10.4s-20.3,9-45.2,19.4c-43.6,18.2-45.3,18.8-47.7,17.3c-2.8-1.7-2.8-1.7-8.4-25.9l-3.4-14.6l2.9-4.4
	c1.6-2.3,3.5-6.2,4.1-8.6c0.8-3,1.6-4.2,2.7-3.9C672.7,954.7,694.4,959.3,720.2,964.8z M628.4,978.3c4,1.8,6.2,2.1,13.2,1.7
	c4.5-0.2,8.3-0.2,8.3,0.1c0,0.3,1.6,7.3,3.5,15.5l3.5,14.9l-3.3,3.1c-1.8,1.7-3.9,4.1-4.7,5.3c-1.5,2.2-2.3,2.3-35.4,3.9
	c-24.8,1.2-34.1,1.3-34.9,0.5c-0.8-0.8,5-7.3,21.8-24.1c12.7-12.7,23-23,23.1-23S625.8,977.2,628.4,978.3z"/>
</svg>
